<?xml version="1.0" standalone="no"?>
<!DOCTYPE svg PUBLIC "-//W3C//DTD SVG 20010904//EN"
 "http://www.w3.org/TR/2001/REC-SVG-20010904/DTD/svg10.dtd">
<svg version="1.0" xmlns="http://www.w3.org/2000/svg"
 width="128.000000pt" height="128.000000pt" viewBox="0 0 128.000000 128.000000"
 preserveAspectRatio="xMidYMid meet">
<metadata>
Created by potrace 1.14, written by Peter Selinger 2001-2017
</metadata>
<g transform="translate(0.000000,128.000000) scale(0.100000,-0.100000)"
fill="#000000" stroke="none">
<path d="M297 1142 l-137 -137 0 -458 0 -457 45 0 45 0 0 -45 0 -45 423 2 422
3 3 593 2 592 -45 0 -45 0 0 45 0 45 -288 0 -287 0 -138 -138z m681 -459 l-3
-558 -387 -3 -388 -2 0 430 0 429 128 3 127 3 3 128 3 127 259 0 260 0 -2
-557z m-558 432 l0 -95 -97 0 -98 0 95 95 c52 52 96 95 97 95 2 0 3 -43 3 -95z
m640 -515 l0 -560 -391 0 -390 0 3 22 3 23 363 3 362 2 0 528 c0 291 3 532 7
535 3 4 15 7 25 7 17 0 18 -24 18 -560z"/>
<path d="M337 732 c-42 -42 -77 -82 -77 -87 0 -15 163 -175 178 -175 26 0 9
29 -58 95 -38 38 -70 74 -70 80 0 6 29 40 65 75 63 62 79 90 52 90 -7 0 -47
-35 -90 -78z"/>
<path d="M591 658 c-61 -154 -72 -193 -48 -186 13 5 136 292 137 321 0 9 -6
17 -14 17 -9 0 -37 -58 -75 -152z"/>
<path d="M724 799 c-4 -6 27 -44 70 -88 l76 -76 -70 -70 c-67 -67 -84 -95 -57
-95 15 0 167 151 167 165 0 11 -161 175 -172 175 -4 0 -10 -5 -14 -11z"/>
</g>
</svg>
